<svg width="133" height="133" viewBox="0 0 133 133" fill="none" xmlns="http://www.w3.org/2000/svg">
<path d="M118.453 10.3906H12.4688V74.8125H118.453V10.3906Z" fill="#13906B"/>
<path d="M18.7031 18.7031H94.1391C97.8318 18.7031 101.373 20.1701 103.984 22.7812C106.596 25.3924 108.062 28.9338 108.062 32.6266V64.4219H18.7031V18.7031Z" fill="#10E3A5" fill-opacity="0.92"/>
<path d="M18.7031 46.7911V12.4688H114.297V34.979L122.609 41.5625V8.3125C122.609 7.21019 122.171 6.15304 121.392 5.37359C120.613 4.59414 119.555 4.15625 118.453 4.15625H14.5469C13.4446 4.15625 12.3874 4.59414 11.608 5.37359C10.8285 6.15304 10.3906 7.21019 10.3906 8.3125V62.3438L18.7031 46.7911Z" fill="#16F1E4" fill-opacity="0.92"/>
<path d="M29.3244 43.6427L37.4063 29.0938H62.3438L72.7344 47.7969L68.7319 55.0017V64.4219H29.3244V43.6427Z" fill="#16F1E4" fill-opacity="0.92"/>
<path d="M46.7329 56.1094H56.1094L60.2656 47.7969L56.1094 39.4844H43.6406L39.8584 47.0487L46.7329 56.1094Z" fill="#CCF1FF"/>
<path opacity="0.3" d="M62.3438 29.0938L56.1094 39.4844H43.6406L37.4062 29.0938H62.3438Z" fill="white"/>
<path opacity="0.3" d="M72.7344 47.7969H60.2656L56.1094 56.1094L61.0969 64.4219H68.7319V55.0017L72.7344 47.7969Z" fill="white"/>
<path d="M61.3296 64.4219C62.9893 59.7428 66.4388 55.9142 70.92 53.7772C75.4013 51.6403 80.5476 51.3699 85.2281 53.0254L95.5937 64.4219H61.3296Z" fill="#EAEBEF"/>
<path d="M10.3906 62.3437C10.3906 57.3834 12.3611 52.6262 15.8686 49.1186C19.3762 45.6111 24.1334 43.6406 29.0938 43.6406C34.0541 43.6406 38.8113 45.6111 42.3189 49.1186C45.8264 52.6262 47.7969 57.3834 47.7969 62.3437C47.7967 63.038 47.7585 63.7318 47.6826 64.4219V72.7344H10.3906V62.3437ZM86.1923 60.3862C85.1673 57.1857 84.9337 53.7844 85.5115 50.4739C86.0894 47.1634 87.4615 44.0424 89.5102 41.3785C91.559 38.7147 94.2231 36.5874 97.2744 35.179C100.326 33.7707 103.673 33.1234 107.029 33.2925C110.386 33.4617 113.651 34.4422 116.545 36.1502C119.439 37.8581 121.876 40.2425 123.646 43.0989C125.417 45.9552 126.468 49.1983 126.71 52.5502C126.953 55.902 126.378 59.2626 125.037 62.3437V68.815H86.6578L86.1923 60.3862Z" fill="#16F1E4"/>
<path opacity="0.3" d="M105.984 33.25C102.334 33.2496 98.7486 34.217 95.5938 36.0534V40.7728C95.5943 44.289 96.9913 47.661 99.4777 50.1473C101.964 52.6337 105.336 54.0307 108.852 54.0312H126.766C126.766 48.5197 124.576 43.2339 120.679 39.3367C116.782 35.4394 111.496 33.25 105.984 33.25Z" fill="white"/>
<path d="M12.4688 126.766H120.531V105.984H107.449H86.3357H66.5H12.4688V126.766Z" fill="#10E3A5" fill-opacity="0.92"/>
<path d="M12.4688 105.984H120.531V85.2031H107.449H86.3357H66.5H12.4688V105.984Z" fill="#13906B"/>
<path d="M12.4688 85.2031H120.531V64.4219H107.449H86.3357H66.5H12.4688V85.2031Z" fill="#10E3A5"/>
<path d="M14.5469 62.3438H6.23438C5.08666 62.3438 4.15625 63.2742 4.15625 64.4219V126.766C4.15625 127.913 5.08666 128.844 6.23438 128.844H14.5469C15.6946 128.844 16.625 127.913 16.625 126.766V64.4219C16.625 63.2742 15.6946 62.3438 14.5469 62.3438Z" fill="#16F1E4" fill-opacity="0.92"/>
<path d="M126.766 62.3438H118.453C117.305 62.3438 116.375 63.2742 116.375 64.4219V126.766C116.375 127.913 117.305 128.844 118.453 128.844H126.766C127.913 128.844 128.844 127.913 128.844 126.766V64.4219C128.844 63.2742 127.913 62.3438 126.766 62.3438Z" fill="#16F1E4" fill-opacity="0.92"/>
<path d="M62.3438 87.7696V93.5156C62.3438 94.618 62.7816 95.6751 63.5611 96.4546C64.3405 97.234 65.3977 97.6719 66.5 97.6719C67.6023 97.6719 68.6595 97.234 69.4389 96.4546C70.2184 95.6751 70.6563 94.618 70.6563 93.5156V87.7696C71.5974 86.9279 72.2607 85.8202 72.5585 84.5932C72.8563 83.3662 72.7745 82.0777 72.324 80.8982C71.8735 79.7187 71.0754 78.7038 70.0354 77.9878C68.9955 77.2718 67.7626 76.8884 66.5 76.8884C65.2374 76.8884 64.0045 77.2718 62.9646 77.9878C61.9246 78.7038 61.1266 79.7187 60.676 80.8982C60.2255 82.0777 60.1437 83.3662 60.4415 84.5932C60.7393 85.8202 61.4027 86.9279 62.3438 87.7696Z" fill="#13906B"/>
<path d="M108.062 64.4219V96.6328C108.062 98.4067 107.713 100.163 107.034 101.802C106.355 103.441 105.36 104.93 104.106 106.184C102.852 107.439 101.363 108.434 99.7239 109.112C98.0851 109.791 96.3286 110.141 94.5547 110.141C92.7808 110.141 91.0243 109.791 89.3855 109.112C87.7466 108.434 86.2575 107.439 85.0032 106.184C83.7489 104.93 82.7539 103.441 82.0751 101.802C81.3963 100.163 81.0469 98.4067 81.0469 96.6328V64.4219C81.0469 63.3196 81.4848 62.2624 82.2642 61.483C83.0437 60.7035 84.1008 60.2656 85.2031 60.2656C86.3054 60.2656 87.3626 60.7035 88.142 61.483C88.9215 62.2624 89.3594 63.3196 89.3594 64.4219V96.6328C89.3594 98.0107 89.9067 99.3321 90.881 100.306C91.8554 101.281 93.1768 101.828 94.5547 101.828C95.2369 101.828 95.9125 101.694 96.5428 101.433C97.1732 101.172 97.7459 100.789 98.2283 100.306C98.7108 99.824 99.0934 99.2513 99.3545 98.621C99.6156 97.9906 99.75 97.3151 99.75 96.6328V64.4219C99.75 63.3196 100.188 62.2624 100.967 61.483C101.747 60.7035 102.804 60.2656 103.906 60.2656C105.009 60.2656 106.066 60.7035 106.845 61.483C107.625 62.2624 108.062 63.3196 108.062 64.4219Z" fill="#2B7A63"/>
<path d="M127.911 60.4464C128.882 57.1626 129.097 53.7014 128.538 50.3227C127.98 46.9441 126.664 43.7359 124.688 40.9391V8.3125C124.688 6.65904 124.031 5.0733 122.861 3.90413C121.692 2.73496 120.107 2.07813 118.453 2.07812H14.5469C12.8934 2.07813 11.3077 2.73496 10.1385 3.90413C8.96933 5.0733 8.3125 6.65904 8.3125 8.3125V60.2656H6.23438C5.13207 60.2656 4.07491 60.7035 3.29546 61.483C2.51601 62.2624 2.07813 63.3196 2.07812 64.4219V126.766C2.07813 127.868 2.51601 128.925 3.29546 129.705C4.07491 130.484 5.13207 130.922 6.23438 130.922H14.5469C15.2732 130.92 15.9862 130.727 16.6143 130.362C17.2424 129.997 17.7635 129.474 18.1254 128.844H114.875C115.236 129.474 115.758 129.997 116.386 130.362C117.014 130.727 117.727 130.92 118.453 130.922H126.766C127.868 130.922 128.925 130.484 129.705 129.705C130.484 128.925 130.922 127.868 130.922 126.766V64.4219C130.918 63.5227 130.622 62.6491 130.079 61.9323C129.536 61.2155 128.775 60.6941 127.911 60.4464ZM14.5469 6.23438H118.453C119.004 6.23438 119.533 6.45332 119.923 6.84304C120.312 7.23277 120.531 7.76135 120.531 8.3125V36.4108C119.248 35.3574 117.855 34.4467 116.375 33.6947V12.4688C116.375 11.9176 116.156 11.389 115.766 10.9993C115.377 10.6096 114.848 10.3906 114.297 10.3906H18.7031C18.152 10.3906 17.6234 10.6096 17.2337 10.9993C16.8439 11.389 16.625 11.9176 16.625 12.4688V45.7582C15.0503 46.946 13.6511 48.3502 12.4688 49.929V8.3125C12.4688 7.76135 12.6877 7.23277 13.0774 6.84304C13.4671 6.45332 13.9957 6.23438 14.5469 6.23438ZM91.4375 66.5H97.6719V83.125H91.4375V66.5ZM91.4375 87.2812H97.6719V96.6328C97.6719 97.4595 97.3435 98.2524 96.7589 98.837C96.1743 99.4216 95.3814 99.75 94.5547 99.75C93.728 99.75 92.9351 99.4216 92.3505 98.837C91.7659 98.2524 91.4375 97.4595 91.4375 96.6328V87.2812ZM94.5547 103.906C96.4837 103.906 98.3337 103.14 99.6978 101.776C101.062 100.412 101.828 98.5619 101.828 96.6328V64.4219C101.828 63.8707 102.047 63.3421 102.437 62.9524C102.827 62.5627 103.355 62.3438 103.906 62.3438C104.457 62.3438 104.986 62.5627 105.376 62.9524C105.765 63.3421 105.984 63.8707 105.984 64.4219V96.6328C105.984 99.6642 104.78 102.571 102.637 104.715C100.493 106.858 97.586 108.062 94.5547 108.062C91.5233 108.062 88.6162 106.858 86.4727 104.715C84.3292 102.571 83.125 99.6642 83.125 96.6328V64.4219C83.125 63.8707 83.3439 63.3421 83.7337 62.9524C84.1234 62.5627 84.652 62.3438 85.2031 62.3438C85.7543 62.3438 86.2829 62.5627 86.6726 62.9524C87.0623 63.3421 87.2812 63.8707 87.2812 64.4219V96.6328C87.2812 98.5619 88.0476 100.412 89.4116 101.776C90.7756 103.14 92.6256 103.906 94.5547 103.906ZM110.141 66.5H114.297V83.125H110.141V66.5ZM110.141 96.6328V87.2812H114.297V103.906H108.328C109.52 101.667 110.142 99.1692 110.141 96.6328ZM29.0938 45.7188C33.5015 45.7237 37.7272 47.4768 40.8439 50.5936C43.9607 53.7103 45.7138 57.936 45.7188 62.3438H18.1254C17.7635 61.714 17.2424 61.1905 16.6143 60.8257C15.9862 60.461 15.2732 60.2678 14.5469 60.2656H12.6121C13.1214 56.2517 15.0756 52.5609 18.1091 49.8834C21.1426 47.206 25.0477 45.7255 29.0938 45.7188ZM83.1458 54.5612C83.1733 55.8612 83.3124 57.1565 83.5614 58.4327C82.5974 58.6991 81.7116 59.1935 80.9788 59.8742C80.246 60.5549 79.6877 61.4019 79.3511 62.3438H64.5964C66.4104 59.1962 69.2066 56.7305 72.5565 55.3247C75.9063 53.9189 79.6247 53.6507 83.1416 54.5612H83.1458ZM18.7031 66.5H78.9688V83.125H74.8125C74.8125 80.9204 73.9367 78.8061 72.3778 77.2472C70.8189 75.6883 68.7046 74.8125 66.5 74.8125C64.2954 74.8125 62.1811 75.6883 60.6222 77.2472C59.0633 78.8061 58.1875 80.9204 58.1875 83.125H18.7031V66.5ZM44.9249 41.5625H54.8251L57.9423 47.7969L54.8251 54.0312H48.1273C46.8453 51.1108 44.9109 48.5231 42.4727 46.4669L44.9249 41.5625ZM49.4552 58.1875H54.9332L57.4269 62.3438H49.875C49.8766 60.9479 49.7374 59.5554 49.4594 58.1875H49.4552ZM63.7299 86.2214C63.1026 85.6602 62.6604 84.9218 62.462 84.1038C62.2635 83.2858 62.3181 82.4269 62.6185 81.6406C62.9188 80.8543 63.4509 80.1777 64.1442 79.7004C64.8375 79.2231 65.6593 78.9676 66.501 78.9676C67.3427 78.9676 68.1646 79.2231 68.8579 79.7004C69.5512 80.1777 70.0832 80.8543 70.3836 81.6406C70.684 82.4269 70.7386 83.2858 70.5401 84.1038C70.3417 84.9218 69.8995 85.6602 69.2722 86.2214C69.0539 86.4164 68.8792 86.6552 68.7596 86.9224C68.6399 87.1896 68.5781 87.479 68.5781 87.7717V93.5156C68.5781 94.0668 68.3592 94.5954 67.9695 94.9851C67.5797 95.3748 67.0512 95.5938 66.5 95.5938C65.9488 95.5938 65.4203 95.3748 65.0305 94.9851C64.6408 94.5954 64.4219 94.0668 64.4219 93.5156V87.7696C64.4219 87.4774 64.3602 87.1885 64.241 86.9217C64.1217 86.6549 63.9476 86.4163 63.7299 86.2214ZM18.7031 87.2812H59.3159C59.587 87.7586 59.9052 88.2076 60.2656 88.6216V93.5156C60.2656 95.1691 60.9225 96.7548 62.0916 97.924C63.2608 99.0932 64.8465 99.75 66.5 99.75C68.1535 99.75 69.7392 99.0932 70.9084 97.924C72.0775 96.7548 72.7344 95.1691 72.7344 93.5156V88.6216C73.0949 88.2076 73.413 87.7586 73.6841 87.2812H78.9688V96.6328C78.9674 99.1692 79.5897 101.667 80.7809 103.906H18.7031V87.2812ZM61.0054 60.2303L58.4784 56.0179L61.5499 49.875H69.2016L67.1421 53.5824C64.6334 55.3211 62.5383 57.5908 61.0054 60.2303ZM61.5499 45.7188L58.4784 39.5758L62.2731 33.25L69.2016 45.7188H61.5499ZM54.9332 37.4062H44.8168L41.0762 31.1719H58.6738L54.9332 37.4062ZM37.4769 33.25L41.2736 39.5779L39.0168 44.0916C37.0365 43.0186 34.8941 42.2766 32.6744 41.895L37.4769 33.25ZM18.7031 108.062H83.9937C86.8618 110.733 90.6355 112.219 94.5547 112.219C98.4739 112.219 102.248 110.733 105.116 108.062H114.297V124.688H18.7031V108.062ZM83.445 50.3779C80.1772 49.636 76.7763 49.716 73.5469 50.6107L74.5507 48.8048C74.7221 48.4961 74.812 48.1489 74.812 47.7958C74.812 47.4428 74.7221 47.0956 74.5507 46.7869L64.16 28.0838C63.98 27.76 63.7167 27.4902 63.3973 27.3024C63.078 27.1146 62.7142 27.0156 62.3438 27.0156H37.4062C37.0358 27.0156 36.672 27.1146 36.3527 27.3024C36.0333 27.4902 35.77 27.76 35.59 28.0838L28.0713 41.6145C25.5582 41.7306 23.0876 42.3053 20.7812 43.3102V14.5469H112.219V32.0572C109.119 31.1664 105.865 30.9444 102.674 31.4058C99.4816 31.8673 96.4241 33.0017 93.7036 34.7339C90.9831 36.466 88.6617 38.7565 86.8932 41.4535C85.1246 44.1505 83.9493 47.1924 83.445 50.3779ZM6.23438 126.766V64.4219H14.5469V126.766H6.23438ZM114.875 62.3438H109.758C109.335 61.129 108.544 60.076 107.496 59.3309C106.447 58.5858 105.193 58.1855 103.906 58.1855C102.62 58.1855 101.365 58.5858 100.317 59.3309C99.2682 60.076 98.4774 61.129 98.0542 62.3438H91.0551C90.513 60.8257 89.404 59.5767 87.9608 58.8587C87.1969 56.0286 87.1096 53.0584 87.7059 50.1883C88.3022 47.3182 89.5654 44.6286 91.3934 42.3369C93.2214 40.0452 95.5628 38.2158 98.2286 36.9964C100.894 35.777 103.81 35.2019 106.739 35.3175C109.668 35.4331 112.529 36.2362 115.09 37.662C117.651 39.0877 119.841 41.096 121.483 43.5246C123.125 45.9533 124.172 48.734 124.54 51.6423C124.908 54.5505 124.587 57.5045 123.603 60.2656H118.453C117.727 60.2678 117.014 60.461 116.386 60.8257C115.758 61.1905 115.236 61.714 114.875 62.3438ZM118.453 126.766V64.4219H126.766V126.766H118.453Z" fill="black"/>
</svg>
