<svg width="15" height="19" viewBox="0 0 15 19" fill="#000" xmlns="http://www.w3.org/2000/svg">
<path d="M14.1786 9.81245C12.7768 6.16959 7.78575 5.97316 8.99111 0.678522C9.08039 0.285665 8.66075 -0.0179061 8.32146 0.187451C5.08039 2.09817 2.75003 5.92852 4.70539 10.9464C4.86611 11.3571 4.38396 11.741 4.03575 11.4732C2.41968 10.25 2.25003 8.49102 2.39289 7.23209C2.44646 6.76781 1.83932 6.54459 1.58039 6.92852C0.973249 7.85709 0.357178 9.35709 0.357178 11.616C0.696463 16.616 4.91968 18.1517 6.43753 18.3482C8.60718 18.625 10.9554 18.2232 12.6429 16.6785C14.5 14.9553 15.1786 12.2053 14.1786 9.81245ZM5.89289 14.3035C7.17861 13.991 7.83932 13.0624 8.01789 12.241C8.31253 10.9642 7.16075 9.71424 7.93753 7.69638C8.23218 9.36602 10.8572 10.4107 10.8572 12.2321C10.9286 14.491 8.48218 16.4285 5.89289 14.3035Z" fill="#000"/>
</svg>
