<svg width="27" height="37" viewBox="0 0 27 37" fill="#000" xmlns="http://www.w3.org/2000/svg">
<path d="M24.7899 18.8017L22.5693 16.5812C22.0415 16.1261 21.7321 15.4527 21.7139 14.7065C21.6775 13.8874 22.0051 13.0684 22.6057 12.4677L24.7899 10.2836C26.6828 8.39069 27.3926 6.57058 26.792 5.1327C26.2095 3.71302 24.4076 2.93037 21.7503 2.93037H2.73016V1.36508C2.73016 0.618836 2.11132 0 1.36508 0C0.618836 0 0 0.618836 0 1.36508V35.037C0 35.7833 0.618836 36.4021 1.36508 36.4021C2.11132 36.4021 2.73016 35.7833 2.73016 35.037V26.1549H21.7503C24.3712 26.1549 26.1367 25.3541 26.7374 23.9162C27.338 22.4783 26.6464 20.6764 24.7899 18.8017Z" fill="#000"/>
</svg>
