<svg width="33" height="38" viewBox="0 0 33 38" fill="#000" xmlns="http://www.w3.org/2000/svg">
<path d="M32.439 12.4195C30.4927 3.85561 23.0225 0 16.4605 0C16.4605 0 16.4605 0 16.442 0C9.8985 0 2.40972 3.83707 0.463374 12.401C-1.70541 21.9659 4.15216 30.0663 9.45362 35.1639C11.4185 37.0546 13.9395 38 16.4605 38C18.9815 38 21.5025 37.0546 23.4488 35.1639C28.7503 30.0663 34.6078 21.9844 32.439 12.4195ZM16.4605 21.7063C13.2351 21.7063 10.6214 19.0927 10.6214 15.8673C10.6214 12.642 13.2351 10.0283 16.4605 10.0283C19.6859 10.0283 22.2995 12.642 22.2995 15.8673C22.2995 19.0927 19.6859 21.7063 16.4605 21.7063Z" fill="#000"/>
</svg>
