<svg width="38" height="38" viewBox="0 0 38 38" fill="#000" xmlns="http://www.w3.org/2000/svg">
<path d="M29.7331 10.7097C29.6032 10.6911 29.4733 10.6911 29.3434 10.7097C26.4664 10.6169 24.1834 8.25962 24.1834 5.36411C24.1834 2.41292 26.5778 0 29.5475 0C32.4987 0 34.9116 2.39436 34.9116 5.36411C34.8931 8.25962 32.6101 10.6169 29.7331 10.7097Z" fill="#000"/>
<path d="M35.7887 23.573C33.7099 24.9651 30.7958 25.4848 28.1045 25.1322C28.8098 23.6102 29.181 21.9211 29.1996 20.1393C29.1996 18.2832 28.7912 16.5199 28.0117 14.9793C30.7587 14.6081 33.6727 15.1278 35.7701 16.5199C38.7028 18.4502 38.7028 21.6242 35.7887 23.573Z" fill="#000"/>
<path d="M9.15103 10.7097C9.28096 10.6911 9.41088 10.6911 9.54081 10.7097C12.4178 10.6169 14.7008 8.25962 14.7008 5.36411C14.7008 2.39436 12.3064 0 9.33664 0C6.38545 0 3.99109 2.39436 3.99109 5.36411C3.99109 8.25962 6.27408 10.6169 9.15103 10.7097Z" fill="#000"/>
<path d="M9.35691 20.1396C9.35691 21.94 9.74669 23.6476 10.452 25.1882C7.83492 25.4666 5.10646 24.9098 3.10188 23.592C0.169248 21.6431 0.169248 18.4691 3.10188 16.5202C5.0879 15.1839 7.8906 14.6456 10.5263 14.9426C9.76525 16.5017 9.35691 18.265 9.35691 20.1396Z" fill="#000"/>
<path d="M19.6948 25.744C19.5463 25.7255 19.3792 25.7255 19.2122 25.744C15.797 25.6327 13.0685 22.83 13.0685 19.3776C13.087 15.8511 15.9269 12.9927 19.472 12.9927C22.9986 12.9927 25.857 15.8511 25.857 19.3776C25.8384 22.83 23.1285 25.6327 19.6948 25.744Z" fill="#000"/>
<path d="M13.6625 29.5873C10.8598 31.462 10.8598 34.5431 13.6625 36.3992C16.855 38.5337 22.0892 38.5337 25.2817 36.3992C28.0844 34.5245 28.0844 31.4434 25.2817 29.5873C22.1078 27.4528 16.8736 27.4528 13.6625 29.5873Z" fill="#000"/>
</svg>
