<svg width="26" height="26" viewBox="0 0 26 26" fill="none" xmlns="http://www.w3.org/2000/svg">
<path d="M9.47917 0C11.9932 0 14.4043 0.998695 16.1819 2.77638C17.9596 4.55407 18.9583 6.96514 18.9583 9.47917C18.9583 11.8271 18.0979 13.9854 16.6833 15.6479L17.0771 16.0417H18.2292L25.5208 23.3333L23.3333 25.5208L16.0417 18.2292V17.0771L15.6479 16.6833C13.9854 18.0979 11.8271 18.9583 9.47917 18.9583C6.96514 18.9583 4.55407 17.9596 2.77638 16.1819C0.998695 14.4043 0 11.9932 0 9.47917C0 6.96514 0.998695 4.55407 2.77638 2.77638C4.55407 0.998695 6.96514 0 9.47917 0ZM9.47917 2.91667C5.83333 2.91667 2.91667 5.83333 2.91667 9.47917C2.91667 13.125 5.83333 16.0417 9.47917 16.0417C13.125 16.0417 16.0417 13.125 16.0417 9.47917C16.0417 5.83333 13.125 2.91667 9.47917 2.91667Z" fill="white"/>
</svg>
