<svg width="38" height="38" viewBox="0 0 38 38" fill="#000" xmlns="http://www.w3.org/2000/svg">
<path d="M37.3869 12.6246L36.8654 7.64309C36.1101 2.212 33.6463 0 28.3772 0H24.1329H21.4715H16.0044H13.3427H9.02665C3.73943 0 1.29364 2.212 0.520337 7.69704L0.034776 12.6426C-0.145061 14.5668 0.376467 16.4371 1.50944 17.8938C2.87621 19.6742 4.9803 20.6813 7.31819 20.6813C9.58414 20.6813 11.7602 19.5483 13.1269 17.732C14.3498 19.5483 16.436 20.6813 18.7559 20.6813C21.0757 20.6813 23.108 19.6023 24.3487 17.8039C25.7336 19.5843 27.8735 20.6813 30.1035 20.6813C32.4953 20.6813 34.6534 19.6203 36.0022 17.7499C37.0812 16.3113 37.5669 14.4949 37.3869 12.6246Z" fill="#000"/>
<path d="M17.5859 27.7134C15.302 27.9472 13.5756 29.8894 13.5756 32.1914V37.1189C13.5756 37.6045 13.9713 38.0001 14.4568 38.0001H23.035C23.5206 38.0001 23.9162 37.6045 23.9162 37.1189V32.8208C23.9342 29.0622 21.7222 27.2818 17.5859 27.7134Z" fill="#000"/>
<path d="M35.6089 23.6452V29.0044C35.6089 33.9679 31.5805 37.9963 26.617 37.9963C26.1314 37.9963 25.7358 37.6006 25.7358 37.1151V32.8169C25.7358 30.515 25.0344 28.7166 23.6677 27.4938C22.4627 26.3967 20.8262 25.8572 18.7941 25.8572C18.3445 25.8572 17.8949 25.8752 17.4093 25.9292C14.2081 26.2529 11.7803 28.9504 11.7803 32.1875V37.1151C11.7803 37.6006 11.3847 37.9963 10.8991 37.9963C5.93562 37.9963 1.90726 33.9679 1.90726 29.0044V23.6812C1.90726 22.4223 3.14814 21.5771 4.31708 21.9907C4.80264 22.1526 5.2882 22.2785 5.79175 22.3504C6.00755 22.3864 6.24134 22.4223 6.45714 22.4223C6.74488 22.4583 7.03262 22.4763 7.32036 22.4763C9.40648 22.4763 11.4566 21.703 13.0752 20.3722C14.6218 21.703 16.636 22.4763 18.7581 22.4763C20.8982 22.4763 22.8764 21.739 24.423 20.4082C26.0415 21.721 28.0557 22.4763 30.1058 22.4763C30.4295 22.4763 30.7533 22.4583 31.059 22.4223C31.2748 22.4044 31.4726 22.3864 31.6704 22.3504C32.2279 22.2785 32.7315 22.1166 33.235 21.9548C34.4039 21.5591 35.6089 22.4223 35.6089 23.6452Z" fill="#000"/>
</svg>
