<svg width="20" height="20" viewBox="0 0 20 20" fill="none" xmlns="http://www.w3.org/2000/svg">
<path d="M0.683761 10.7119H2.25641L1.02564 11.9322C0.752137 12.2034 0.752137 12.6102 1.02564 12.8814C1.16239 13.0169 1.33333 13.0847 1.50427 13.0847C1.67521 13.0847 1.84615 13.0169 1.98291 12.8814L4.17094 10.7119H8.41026L7.76068 11.3559H4.61538C4.23932 11.3559 3.93162 11.661 3.93162 12.0339C3.93162 12.4068 4.23932 12.7119 4.61538 12.7119H6.39316L5.12821 13.9661C4.8547 14.2373 4.8547 14.6441 5.12821 14.9153C5.26496 15.0508 5.4359 15.1186 5.60684 15.1186C5.77778 15.1186 5.94872 15.0508 6.08547 14.9153L7.35043 13.661V15.4237C7.35043 15.7966 7.65812 16.1017 8.03419 16.1017C8.41026 16.1017 8.71795 15.7966 8.71795 15.4237V12.339L9.40171 11.661V15.7966L7.1453 18.0339C6.87179 18.3051 6.87179 18.7119 7.1453 18.9831C7.28205 19.1186 7.45299 19.1864 7.62393 19.1864C7.79487 19.1864 7.96581 19.1186 8.10256 18.9831L9.36752 17.7288V19.322C9.36752 19.6949 9.67521 20 10.0513 20C10.4274 20 10.735 19.6949 10.735 19.322V17.7627L11.9658 18.9831C12.2393 19.2542 12.6496 19.2542 12.9231 18.9831C13.1966 18.7119 13.1966 18.3051 12.9231 18.0339L10.7692 15.8305V11.6271L11.453 12.3051V15.4237C11.453 15.7966 11.7607 16.1017 12.1368 16.1017C12.5128 16.1017 12.8205 15.7966 12.8205 15.4237V13.661L14.0855 14.9153C14.2222 15.0508 14.3932 15.1186 14.5641 15.1186C14.735 15.1186 14.906 15.0508 15.0427 14.9153C15.3162 14.6441 15.3162 14.2373 15.0427 13.9661L13.812 12.7119H15.5556C15.9316 12.7119 16.2393 12.4068 16.2393 12.0339C16.2393 11.661 15.9316 11.3559 15.5556 11.3559H12.4444L11.7949 10.7119H15.8291L18.0171 12.8814C18.1538 13.0169 18.3248 13.0847 18.4957 13.0847C18.6667 13.0847 18.8376 13.0169 18.9744 12.8814C19.2479 12.6102 19.2479 12.2034 18.9744 11.9322L17.7436 10.7119H19.3162C19.6923 10.7119 20 10.4068 20 10.0339C20 9.66102 19.6923 9.35593 19.3162 9.35593H17.7094L18.9744 8.1017C19.2479 7.83051 19.2479 7.42373 18.9744 7.15254C18.7009 6.88136 18.2906 6.88136 18.0171 7.15254L15.7607 9.38983H11.7265L12.4444 8.67797H15.5556C15.9316 8.67797 16.2393 8.37288 16.2393 8C16.2393 7.62712 15.9316 7.32203 15.5556 7.32203H13.812L15.0769 6.0678C15.3504 5.79661 15.3504 5.38983 15.0769 5.11864C14.8034 4.84746 14.3932 4.84746 14.1197 5.11864L12.8205 6.33898V4.57627C12.8205 4.20339 12.5128 3.89831 12.1368 3.89831C11.7607 3.89831 11.453 4.20339 11.453 4.57627V7.69492L10.7692 8.37288V4.16949L12.9573 2C13.2308 1.72881 13.2308 1.32203 12.9573 1.05085C12.6838 0.779661 12.2735 0.779661 12 1.05085L10.7692 2.23729V0.677966C10.7692 0.305085 10.4615 0 10.0855 0C9.7094 0 9.40171 0.305085 9.40171 0.677966V2.27119L8.13675 1.01695C7.86325 0.745763 7.45299 0.745763 7.17949 1.01695C6.90598 1.28814 6.90598 1.69492 7.17949 1.9661L9.4359 4.20339V8.33898L8.75214 7.66102V4.57627C8.75214 4.20339 8.44444 3.89831 8.06838 3.89831C7.69231 3.89831 7.38462 4.20339 7.38462 4.57627V6.30509L6.11966 5.05085C5.84615 4.77966 5.4359 4.77966 5.16239 5.05085C4.88889 5.32203 4.88889 5.72881 5.16239 6L6.46154 7.28814H4.61538C4.23932 7.28814 3.93162 7.59322 3.93162 7.9661C3.93162 8.33898 4.23932 8.64407 4.61538 8.64407H7.76068L8.47863 9.35593H4.23932L1.98291 7.11864C1.7094 6.84746 1.29915 6.84746 1.02564 7.11864C0.752137 7.38983 0.752137 7.79661 1.02564 8.0678L2.2906 9.32203H0.683761C0.307692 9.32203 0 9.62712 0 10C0 10.3729 0.307692 10.7119 0.683761 10.7119Z" fill="#16F1E4"/>
</svg>
