<svg width="30" height="27" viewBox="0 0 30 27" fill="none" xmlns="http://www.w3.org/2000/svg">
<path fill-rule="evenodd" clip-rule="evenodd" d="M15 11.4185C14.337 11.4185 13.7011 11.6485 13.2322 12.0579C12.7634 12.4673 12.5 13.0225 12.5 13.6015C12.5 14.1804 12.7634 14.7357 13.2322 15.1451C13.7011 15.5545 14.337 15.7845 15 15.7845C15.663 15.7845 16.2989 15.5545 16.7678 15.1451C17.2366 14.7357 17.5 14.1804 17.5 13.6015C17.5 13.0225 17.2366 12.4673 16.7678 12.0579C16.2989 11.6485 15.663 11.4185 15 11.4185ZM11.25 13.6015C11.25 12.733 11.6451 11.9002 12.3483 11.2861C13.0516 10.672 14.0054 10.327 15 10.327C15.9946 10.327 16.9484 10.672 17.6516 11.2861C18.3549 11.9002 18.75 12.733 18.75 13.6015C18.75 14.4699 18.3549 15.3028 17.6516 15.9169C16.9484 16.531 15.9946 16.8759 15 16.8759C14.0054 16.8759 13.0516 16.531 12.3483 15.9169C11.6451 15.3028 11.25 14.4699 11.25 13.6015ZM10.5875 9.61647C8.1375 11.8158 8.1375 15.3872 10.5875 17.5865L9.69 18.3484C6.77 15.7244 6.77 11.4785 9.69 8.85461L10.5862 9.61647H10.5875ZM19.4125 17.5865C21.8625 15.3872 21.8625 11.8158 19.4125 9.61647L20.31 8.85461C23.23 11.4785 23.23 15.7244 20.31 18.3484L19.4137 17.5865H19.4125Z" fill="#16F1E4"/>
<path fill-rule="evenodd" clip-rule="evenodd" d="M7.92869 7.43891C7.00045 8.24748 6.264 9.208 5.76151 10.2655C5.25902 11.3229 5.00037 12.4566 5.00037 13.6014C5.00037 14.7463 5.25902 15.8799 5.76151 16.9374C6.264 17.9949 7.00045 18.9554 7.92869 19.764L7.04494 20.5367C6.00029 19.6268 5.17148 18.5458 4.60598 17.3557C4.04048 16.1657 3.74939 14.8899 3.74939 13.6014C3.74939 12.313 4.04048 11.0372 4.60598 9.84713C5.17148 8.65706 6.00029 7.5761 7.04494 6.66614L7.92869 7.43891ZM22.0712 19.764C22.9994 18.9554 23.7359 17.9949 24.2384 16.9374C24.7409 15.8799 24.9995 14.7463 24.9995 13.6014C24.9995 12.4566 24.7409 11.3229 24.2384 10.2655C23.7359 9.208 22.9994 8.24748 22.0712 7.43891L22.9549 6.66614C23.9996 7.5761 24.8284 8.65706 25.3939 9.84713C25.9594 11.0372 26.2505 12.313 26.2505 13.6014C26.2505 14.8899 25.9594 16.1657 25.3939 17.3557C24.8284 18.5458 23.9996 19.6268 22.9549 20.5367L22.0712 19.764Z" fill="#16F1E4"/>
</svg>
